<mxfile host="Electron" agent="Mozilla/5.0 (Windows NT 10.0; Win64; x64) AppleWebKit/537.36 (KHTML, like Gecko) draw.io/27.0.9 Chrome/134.0.6998.205 Electron/35.4.0 Safari/537.36" version="27.0.9">
  <diagram name="Page-1" id="It1Zt-z3HcXSzwithYFu">
    <mxGraphModel dx="1028" dy="611" grid="0" gridSize="10" guides="1" tooltips="1" connect="1" arrows="1" fold="1" page="1" pageScale="1" pageWidth="827" pageHeight="1169" background="none" math="0" shadow="0">
      <root>
        <mxCell id="0" />
        <mxCell id="1" parent="0" />
        <mxCell id="KF-14IBpL3evJLs1FDL0-2" value="" style="rounded=0;whiteSpace=wrap;html=1;" parent="1" vertex="1">
          <mxGeometry x="200" y="30" width="569" height="522" as="geometry" />
        </mxCell>
        <mxCell id="KF-14IBpL3evJLs1FDL0-4" value="School Nurse" style="shape=umlActor;verticalLabelPosition=bottom;verticalAlign=top;html=1;outlineConnect=0;" parent="1" vertex="1">
          <mxGeometry x="74" y="215" width="30" height="60" as="geometry" />
        </mxCell>
        <mxCell id="KF-14IBpL3evJLs1FDL0-7" value="Ghi nhận sự kiện y tế" style="ellipse;whiteSpace=wrap;html=1;" parent="1" vertex="1">
          <mxGeometry x="444" y="42" width="120" height="80" as="geometry" />
        </mxCell>
        <mxCell id="KF-14IBpL3evJLs1FDL0-8" value="&lt;br&gt;&lt;table&gt;&lt;tbody&gt;&lt;tr&gt;&lt;td data-col-size=&quot;sm&quot; data-end=&quot;495&quot; data-start=&quot;471&quot;&gt;&lt;br&gt;Quản lý thuốc và vật tư y tế&lt;/td&gt;&lt;/tr&gt;&lt;/tbody&gt;&lt;/table&gt;&lt;table&gt;&lt;tbody&gt;&lt;tr&gt;&lt;td data-end=&quot;552&quot; data-start=&quot;495&quot; data-col-size=&quot;md&quot;&gt;&lt;/td&gt;&lt;/tr&gt;&lt;/tbody&gt;&lt;/table&gt;&lt;div&gt;&lt;br&gt;&lt;/div&gt;" style="ellipse;whiteSpace=wrap;html=1;" parent="1" vertex="1">
          <mxGeometry x="453" y="241" width="120" height="80" as="geometry" />
        </mxCell>
        <mxCell id="KF-14IBpL3evJLs1FDL0-9" value="&lt;table&gt;&lt;tbody&gt;&lt;tr&gt;&lt;td data-col-size=&quot;sm&quot; data-end=&quot;573&quot; data-start=&quot;553&quot;&gt;Lưu danh sách&lt;br&gt;sự kiện&lt;/td&gt;&lt;/tr&gt;&lt;/tbody&gt;&lt;/table&gt;&lt;table&gt;&lt;tbody&gt;&lt;tr&gt;&lt;td data-end=&quot;606&quot; data-start=&quot;573&quot; data-col-size=&quot;md&quot;&gt;&lt;/td&gt;&lt;/tr&gt;&lt;/tbody&gt;&lt;/table&gt;" style="ellipse;whiteSpace=wrap;html=1;" parent="1" vertex="1">
          <mxGeometry x="449" y="144" width="120" height="80" as="geometry" />
        </mxCell>
        <mxCell id="KF-14IBpL3evJLs1FDL0-10" value="Quản lý danh sách&amp;nbsp; học sinh được phụ huynh gửi thuốc" style="ellipse;whiteSpace=wrap;html=1;" parent="1" vertex="1">
          <mxGeometry x="459" y="338" width="120" height="80" as="geometry" />
        </mxCell>
        <mxCell id="KF-14IBpL3evJLs1FDL0-11" value="Theo dõi và xác nhận đã cho uống thuốc" style="ellipse;whiteSpace=wrap;html=1;" parent="1" vertex="1">
          <mxGeometry x="459" y="438" width="120" height="80" as="geometry" />
        </mxCell>
        <mxCell id="KF-14IBpL3evJLs1FDL0-12" value="" style="endArrow=none;html=1;rounded=0;entryX=0.023;entryY=0.608;entryDx=0;entryDy=0;entryPerimeter=0;" parent="1" target="KF-14IBpL3evJLs1FDL0-7" edge="1">
          <mxGeometry width="50" height="50" relative="1" as="geometry">
            <mxPoint x="95" y="217.11267605633805" as="sourcePoint" />
            <mxPoint x="435" y="61" as="targetPoint" />
          </mxGeometry>
        </mxCell>
        <mxCell id="KF-14IBpL3evJLs1FDL0-13" value="" style="endArrow=none;html=1;rounded=0;" parent="1" target="KF-14IBpL3evJLs1FDL0-9" edge="1">
          <mxGeometry width="50" height="50" relative="1" as="geometry">
            <mxPoint x="92" y="236" as="sourcePoint" />
            <mxPoint x="669" y="189" as="targetPoint" />
          </mxGeometry>
        </mxCell>
        <mxCell id="KF-14IBpL3evJLs1FDL0-15" value="" style="endArrow=none;html=1;rounded=0;exitX=0.5;exitY=0.5;exitDx=0;exitDy=0;exitPerimeter=0;" parent="1" source="KF-14IBpL3evJLs1FDL0-4" target="KF-14IBpL3evJLs1FDL0-10" edge="1">
          <mxGeometry width="50" height="50" relative="1" as="geometry">
            <mxPoint x="73" y="226" as="sourcePoint" />
            <mxPoint x="710" y="322" as="targetPoint" />
          </mxGeometry>
        </mxCell>
        <mxCell id="KF-14IBpL3evJLs1FDL0-16" value="" style="endArrow=none;html=1;rounded=0;exitX=1;exitY=0.3333333333333333;exitDx=0;exitDy=0;exitPerimeter=0;" parent="1" source="KF-14IBpL3evJLs1FDL0-4" target="KF-14IBpL3evJLs1FDL0-8" edge="1">
          <mxGeometry width="50" height="50" relative="1" as="geometry">
            <mxPoint x="378" y="523" as="sourcePoint" />
            <mxPoint x="718" y="367" as="targetPoint" />
          </mxGeometry>
        </mxCell>
        <mxCell id="KF-14IBpL3evJLs1FDL0-17" value="" style="endArrow=none;html=1;rounded=0;exitX=1;exitY=1;exitDx=0;exitDy=0;exitPerimeter=0;" parent="1" source="KF-14IBpL3evJLs1FDL0-4" target="KF-14IBpL3evJLs1FDL0-11" edge="1">
          <mxGeometry width="50" height="50" relative="1" as="geometry">
            <mxPoint x="195" y="492" as="sourcePoint" />
            <mxPoint x="535" y="336" as="targetPoint" />
            <Array as="points">
              <mxPoint x="460" y="459" />
            </Array>
          </mxGeometry>
        </mxCell>
      </root>
    </mxGraphModel>
  </diagram>
</mxfile>
